<mxfile host="app.diagrams.net" modified="2024-04-18T12:15:34.324Z" agent="Mozilla/5.0 (Windows NT 10.0; Win64; x64) AppleWebKit/537.36 (KHTML, like Gecko) Chrome/123.0.0.0 Safari/537.36 Edg/123.0.0.0" etag="QSldDAtLCUCYS1fBgzmm" version="24.2.5" type="github">
  <diagram name="PÃ¡gina-1" id="hnOpUzWU4Sag2Yk5zKKM">
    <mxGraphModel dx="292" dy="172" grid="1" gridSize="10" guides="1" tooltips="1" connect="1" arrows="1" fold="1" page="1" pageScale="1" pageWidth="827" pageHeight="1169" math="0" shadow="0">
      <root>
        <mxCell id="0" />
        <mxCell id="1" parent="0" />
        <mxCell id="VxN12bRxHwzkZfDvHQWl-1" value="USUARIO" style="rounded=0;whiteSpace=wrap;html=1;" vertex="1" parent="1">
          <mxGeometry x="60" y="150" width="100" height="40" as="geometry" />
        </mxCell>
        <mxCell id="VxN12bRxHwzkZfDvHQWl-2" value="LOGIN" style="rounded=0;whiteSpace=wrap;html=1;" vertex="1" parent="1">
          <mxGeometry x="340" y="150" width="100" height="40" as="geometry" />
        </mxCell>
        <mxCell id="VxN12bRxHwzkZfDvHQWl-3" value="CAMPO" style="rounded=0;whiteSpace=wrap;html=1;" vertex="1" parent="1">
          <mxGeometry x="610" y="330" width="100" height="40" as="geometry" />
        </mxCell>
        <mxCell id="VxN12bRxHwzkZfDvHQWl-4" value="SITUACAO" style="rounded=0;whiteSpace=wrap;html=1;" vertex="1" parent="1">
          <mxGeometry x="610" y="150" width="100" height="40" as="geometry" />
        </mxCell>
        <mxCell id="VxN12bRxHwzkZfDvHQWl-5" value="ALIMENTO" style="rounded=0;whiteSpace=wrap;html=1;" vertex="1" parent="1">
          <mxGeometry x="340" y="330" width="100" height="40" as="geometry" />
        </mxCell>
        <mxCell id="VxN12bRxHwzkZfDvHQWl-6" value="CRT_ALIMENTO" style="rounded=0;whiteSpace=wrap;html=1;" vertex="1" parent="1">
          <mxGeometry x="70" y="330" width="100" height="40" as="geometry" />
        </mxCell>
        <mxCell id="VxN12bRxHwzkZfDvHQWl-7" value="LOCALIZACAO" style="rounded=0;whiteSpace=wrap;html=1;" vertex="1" parent="1">
          <mxGeometry x="615" y="520" width="100" height="40" as="geometry" />
        </mxCell>
        <mxCell id="VxN12bRxHwzkZfDvHQWl-8" value="possui" style="rhombus;whiteSpace=wrap;html=1;" vertex="1" parent="1">
          <mxGeometry x="220" y="155" width="80" height="30" as="geometry" />
        </mxCell>
        <mxCell id="VxN12bRxHwzkZfDvHQWl-9" value="visualiza" style="rhombus;whiteSpace=wrap;html=1;" vertex="1" parent="1">
          <mxGeometry x="490" y="155" width="80" height="30" as="geometry" />
        </mxCell>
        <mxCell id="VxN12bRxHwzkZfDvHQWl-10" value="tem" style="rhombus;whiteSpace=wrap;html=1;" vertex="1" parent="1">
          <mxGeometry x="620" y="240" width="80" height="30" as="geometry" />
        </mxCell>
        <mxCell id="VxN12bRxHwzkZfDvHQWl-11" value="possui" style="rhombus;whiteSpace=wrap;html=1;" vertex="1" parent="1">
          <mxGeometry x="620" y="420" width="80" height="30" as="geometry" />
        </mxCell>
        <mxCell id="VxN12bRxHwzkZfDvHQWl-12" value="possui" style="rhombus;whiteSpace=wrap;html=1;" vertex="1" parent="1">
          <mxGeometry x="490" y="335" width="80" height="30" as="geometry" />
        </mxCell>
        <mxCell id="VxN12bRxHwzkZfDvHQWl-13" value="tem" style="rhombus;whiteSpace=wrap;html=1;" vertex="1" parent="1">
          <mxGeometry x="220" y="330" width="80" height="30" as="geometry" />
        </mxCell>
        <mxCell id="VxN12bRxHwzkZfDvHQWl-14" value="" style="ellipse;whiteSpace=wrap;html=1;aspect=fixed;fillColor=#000000;" vertex="1" parent="1">
          <mxGeometry x="55" y="112" width="10" height="10" as="geometry" />
        </mxCell>
        <mxCell id="VxN12bRxHwzkZfDvHQWl-15" value="" style="endArrow=none;html=1;rounded=0;entryX=0.5;entryY=1;entryDx=0;entryDy=0;exitX=0;exitY=0;exitDx=0;exitDy=0;" edge="1" parent="1" source="VxN12bRxHwzkZfDvHQWl-1" target="VxN12bRxHwzkZfDvHQWl-14">
          <mxGeometry width="50" height="50" relative="1" as="geometry">
            <mxPoint x="110" y="180" as="sourcePoint" />
            <mxPoint x="160" y="130" as="targetPoint" />
          </mxGeometry>
        </mxCell>
        <mxCell id="VxN12bRxHwzkZfDvHQWl-17" value="" style="ellipse;whiteSpace=wrap;html=1;aspect=fixed;" vertex="1" parent="1">
          <mxGeometry x="80" y="112" width="10" height="10" as="geometry" />
        </mxCell>
        <mxCell id="VxN12bRxHwzkZfDvHQWl-18" value="" style="endArrow=none;html=1;rounded=0;entryX=0.5;entryY=1;entryDx=0;entryDy=0;exitX=0.25;exitY=0;exitDx=0;exitDy=0;" edge="1" parent="1" source="VxN12bRxHwzkZfDvHQWl-1" target="VxN12bRxHwzkZfDvHQWl-17">
          <mxGeometry width="50" height="50" relative="1" as="geometry">
            <mxPoint x="110" y="160" as="sourcePoint" />
            <mxPoint x="160" y="110" as="targetPoint" />
          </mxGeometry>
        </mxCell>
        <mxCell id="VxN12bRxHwzkZfDvHQWl-19" value="" style="ellipse;whiteSpace=wrap;html=1;aspect=fixed;" vertex="1" parent="1">
          <mxGeometry x="105" y="112" width="10" height="10" as="geometry" />
        </mxCell>
        <mxCell id="VxN12bRxHwzkZfDvHQWl-20" value="" style="endArrow=none;html=1;rounded=0;entryX=0.5;entryY=1;entryDx=0;entryDy=0;exitX=0.5;exitY=0;exitDx=0;exitDy=0;" edge="1" parent="1" source="VxN12bRxHwzkZfDvHQWl-1" target="VxN12bRxHwzkZfDvHQWl-19">
          <mxGeometry width="50" height="50" relative="1" as="geometry">
            <mxPoint x="140" y="160" as="sourcePoint" />
            <mxPoint x="190" y="110" as="targetPoint" />
          </mxGeometry>
        </mxCell>
        <mxCell id="VxN12bRxHwzkZfDvHQWl-21" value="" style="ellipse;whiteSpace=wrap;html=1;aspect=fixed;" vertex="1" parent="1">
          <mxGeometry x="130" y="112" width="10" height="10" as="geometry" />
        </mxCell>
        <mxCell id="VxN12bRxHwzkZfDvHQWl-23" value="" style="endArrow=none;html=1;rounded=0;entryX=0.5;entryY=1;entryDx=0;entryDy=0;exitX=0.75;exitY=0;exitDx=0;exitDy=0;" edge="1" parent="1" source="VxN12bRxHwzkZfDvHQWl-1" target="VxN12bRxHwzkZfDvHQWl-21">
          <mxGeometry width="50" height="50" relative="1" as="geometry">
            <mxPoint x="150" y="160" as="sourcePoint" />
            <mxPoint x="200" y="110" as="targetPoint" />
          </mxGeometry>
        </mxCell>
        <mxCell id="VxN12bRxHwzkZfDvHQWl-24" value="" style="ellipse;whiteSpace=wrap;html=1;aspect=fixed;" vertex="1" parent="1">
          <mxGeometry x="120" y="80" width="10" height="10" as="geometry" />
        </mxCell>
        <mxCell id="VxN12bRxHwzkZfDvHQWl-25" value="" style="ellipse;whiteSpace=wrap;html=1;aspect=fixed;" vertex="1" parent="1">
          <mxGeometry x="140" y="80" width="10" height="10" as="geometry" />
        </mxCell>
        <mxCell id="VxN12bRxHwzkZfDvHQWl-27" value="" style="endArrow=none;html=1;rounded=0;entryX=0.5;entryY=1;entryDx=0;entryDy=0;exitX=1;exitY=0;exitDx=0;exitDy=0;" edge="1" parent="1" source="VxN12bRxHwzkZfDvHQWl-21" target="VxN12bRxHwzkZfDvHQWl-25">
          <mxGeometry width="50" height="50" relative="1" as="geometry">
            <mxPoint x="160" y="140" as="sourcePoint" />
            <mxPoint x="210" y="90" as="targetPoint" />
          </mxGeometry>
        </mxCell>
        <mxCell id="VxN12bRxHwzkZfDvHQWl-28" value="" style="endArrow=none;html=1;rounded=0;entryX=0.5;entryY=1;entryDx=0;entryDy=0;exitX=0;exitY=0;exitDx=0;exitDy=0;" edge="1" parent="1" source="VxN12bRxHwzkZfDvHQWl-21" target="VxN12bRxHwzkZfDvHQWl-24">
          <mxGeometry width="50" height="50" relative="1" as="geometry">
            <mxPoint x="90" y="110" as="sourcePoint" />
            <mxPoint x="140" y="60" as="targetPoint" />
          </mxGeometry>
        </mxCell>
        <mxCell id="VxN12bRxHwzkZfDvHQWl-30" value="" style="ellipse;whiteSpace=wrap;html=1;aspect=fixed;" vertex="1" parent="1">
          <mxGeometry x="335" y="122" width="10" height="10" as="geometry" />
        </mxCell>
        <mxCell id="VxN12bRxHwzkZfDvHQWl-31" value="" style="endArrow=none;html=1;rounded=0;entryX=0.5;entryY=1;entryDx=0;entryDy=0;exitX=0;exitY=0;exitDx=0;exitDy=0;" edge="1" parent="1" source="VxN12bRxHwzkZfDvHQWl-2" target="VxN12bRxHwzkZfDvHQWl-30">
          <mxGeometry width="50" height="50" relative="1" as="geometry">
            <mxPoint x="300" y="190" as="sourcePoint" />
            <mxPoint x="350" y="140" as="targetPoint" />
          </mxGeometry>
        </mxCell>
        <mxCell id="VxN12bRxHwzkZfDvHQWl-32" value="" style="ellipse;whiteSpace=wrap;html=1;aspect=fixed;" vertex="1" parent="1">
          <mxGeometry x="360" y="122" width="10" height="10" as="geometry" />
        </mxCell>
        <mxCell id="VxN12bRxHwzkZfDvHQWl-33" value="" style="endArrow=none;html=1;rounded=0;entryX=0.5;entryY=1;entryDx=0;entryDy=0;exitX=0.25;exitY=0;exitDx=0;exitDy=0;" edge="1" parent="1" source="VxN12bRxHwzkZfDvHQWl-2" target="VxN12bRxHwzkZfDvHQWl-32">
          <mxGeometry width="50" height="50" relative="1" as="geometry">
            <mxPoint x="330" y="190" as="sourcePoint" />
            <mxPoint x="380" y="140" as="targetPoint" />
          </mxGeometry>
        </mxCell>
        <mxCell id="VxN12bRxHwzkZfDvHQWl-35" value="" style="ellipse;whiteSpace=wrap;html=1;aspect=fixed;" vertex="1" parent="1">
          <mxGeometry x="385" y="122" width="10" height="10" as="geometry" />
        </mxCell>
        <mxCell id="VxN12bRxHwzkZfDvHQWl-36" value="" style="endArrow=none;html=1;rounded=0;entryX=0.5;entryY=1;entryDx=0;entryDy=0;exitX=0.5;exitY=0;exitDx=0;exitDy=0;" edge="1" parent="1" source="VxN12bRxHwzkZfDvHQWl-2" target="VxN12bRxHwzkZfDvHQWl-35">
          <mxGeometry width="50" height="50" relative="1" as="geometry">
            <mxPoint x="390" y="170" as="sourcePoint" />
            <mxPoint x="440" y="120" as="targetPoint" />
          </mxGeometry>
        </mxCell>
        <mxCell id="VxN12bRxHwzkZfDvHQWl-37" value="" style="ellipse;whiteSpace=wrap;html=1;aspect=fixed;" vertex="1" parent="1">
          <mxGeometry x="605" y="122" width="10" height="10" as="geometry" />
        </mxCell>
        <mxCell id="VxN12bRxHwzkZfDvHQWl-38" value="" style="endArrow=none;html=1;rounded=0;entryX=0.5;entryY=1;entryDx=0;entryDy=0;exitX=0;exitY=0;exitDx=0;exitDy=0;" edge="1" parent="1" source="VxN12bRxHwzkZfDvHQWl-4" target="VxN12bRxHwzkZfDvHQWl-37">
          <mxGeometry width="50" height="50" relative="1" as="geometry">
            <mxPoint x="640" y="180" as="sourcePoint" />
            <mxPoint x="690" y="130" as="targetPoint" />
          </mxGeometry>
        </mxCell>
        <mxCell id="VxN12bRxHwzkZfDvHQWl-39" value="" style="ellipse;whiteSpace=wrap;html=1;aspect=fixed;" vertex="1" parent="1">
          <mxGeometry x="630" y="122" width="10" height="10" as="geometry" />
        </mxCell>
        <mxCell id="VxN12bRxHwzkZfDvHQWl-40" value="" style="endArrow=none;html=1;rounded=0;entryX=0.5;entryY=1;entryDx=0;entryDy=0;exitX=0.25;exitY=0;exitDx=0;exitDy=0;" edge="1" parent="1" source="VxN12bRxHwzkZfDvHQWl-4" target="VxN12bRxHwzkZfDvHQWl-39">
          <mxGeometry width="50" height="50" relative="1" as="geometry">
            <mxPoint x="640" y="200" as="sourcePoint" />
            <mxPoint x="690" y="150" as="targetPoint" />
          </mxGeometry>
        </mxCell>
        <mxCell id="VxN12bRxHwzkZfDvHQWl-41" value="" style="ellipse;whiteSpace=wrap;html=1;aspect=fixed;" vertex="1" parent="1">
          <mxGeometry x="655" y="122" width="10" height="10" as="geometry" />
        </mxCell>
        <mxCell id="VxN12bRxHwzkZfDvHQWl-42" value="" style="endArrow=none;html=1;rounded=0;entryX=0.5;entryY=1;entryDx=0;entryDy=0;exitX=0.5;exitY=0;exitDx=0;exitDy=0;" edge="1" parent="1" source="VxN12bRxHwzkZfDvHQWl-4" target="VxN12bRxHwzkZfDvHQWl-41">
          <mxGeometry width="50" height="50" relative="1" as="geometry">
            <mxPoint x="590" y="220" as="sourcePoint" />
            <mxPoint x="640" y="170" as="targetPoint" />
          </mxGeometry>
        </mxCell>
        <mxCell id="VxN12bRxHwzkZfDvHQWl-43" value="" style="ellipse;whiteSpace=wrap;html=1;aspect=fixed;" vertex="1" parent="1">
          <mxGeometry x="680" y="122" width="10" height="10" as="geometry" />
        </mxCell>
        <mxCell id="VxN12bRxHwzkZfDvHQWl-45" value="" style="endArrow=none;html=1;rounded=0;entryX=0.5;entryY=1;entryDx=0;entryDy=0;exitX=0.75;exitY=0;exitDx=0;exitDy=0;" edge="1" parent="1" source="VxN12bRxHwzkZfDvHQWl-4" target="VxN12bRxHwzkZfDvHQWl-43">
          <mxGeometry width="50" height="50" relative="1" as="geometry">
            <mxPoint x="570" y="220" as="sourcePoint" />
            <mxPoint x="620" y="170" as="targetPoint" />
          </mxGeometry>
        </mxCell>
        <mxCell id="VxN12bRxHwzkZfDvHQWl-47" value="" style="ellipse;whiteSpace=wrap;html=1;aspect=fixed;" vertex="1" parent="1">
          <mxGeometry x="605" y="302" width="10" height="10" as="geometry" />
        </mxCell>
        <mxCell id="VxN12bRxHwzkZfDvHQWl-48" value="" style="endArrow=none;html=1;rounded=0;entryX=0.5;entryY=1;entryDx=0;entryDy=0;exitX=0;exitY=0;exitDx=0;exitDy=0;" edge="1" parent="1" source="VxN12bRxHwzkZfDvHQWl-3" target="VxN12bRxHwzkZfDvHQWl-47">
          <mxGeometry width="50" height="50" relative="1" as="geometry">
            <mxPoint x="530" y="340" as="sourcePoint" />
            <mxPoint x="580" y="290" as="targetPoint" />
          </mxGeometry>
        </mxCell>
        <mxCell id="VxN12bRxHwzkZfDvHQWl-49" value="" style="ellipse;whiteSpace=wrap;html=1;aspect=fixed;" vertex="1" parent="1">
          <mxGeometry x="630" y="302" width="10" height="10" as="geometry" />
        </mxCell>
        <mxCell id="VxN12bRxHwzkZfDvHQWl-50" value="" style="endArrow=none;html=1;rounded=0;entryX=0.5;entryY=1;entryDx=0;entryDy=0;exitX=0.25;exitY=0;exitDx=0;exitDy=0;" edge="1" parent="1" source="VxN12bRxHwzkZfDvHQWl-3" target="VxN12bRxHwzkZfDvHQWl-49">
          <mxGeometry width="50" height="50" relative="1" as="geometry">
            <mxPoint x="540" y="430" as="sourcePoint" />
            <mxPoint x="590" y="380" as="targetPoint" />
          </mxGeometry>
        </mxCell>
        <mxCell id="VxN12bRxHwzkZfDvHQWl-51" value="" style="ellipse;whiteSpace=wrap;html=1;aspect=fixed;" vertex="1" parent="1">
          <mxGeometry x="655" y="302" width="10" height="10" as="geometry" />
        </mxCell>
        <mxCell id="VxN12bRxHwzkZfDvHQWl-52" value="" style="endArrow=none;html=1;rounded=0;entryX=0.5;entryY=1;entryDx=0;entryDy=0;exitX=0.5;exitY=0;exitDx=0;exitDy=0;" edge="1" parent="1" source="VxN12bRxHwzkZfDvHQWl-3" target="VxN12bRxHwzkZfDvHQWl-51">
          <mxGeometry width="50" height="50" relative="1" as="geometry">
            <mxPoint x="560" y="440" as="sourcePoint" />
            <mxPoint x="610" y="390" as="targetPoint" />
          </mxGeometry>
        </mxCell>
        <mxCell id="VxN12bRxHwzkZfDvHQWl-53" value="" style="ellipse;whiteSpace=wrap;html=1;aspect=fixed;" vertex="1" parent="1">
          <mxGeometry x="680" y="302" width="10" height="10" as="geometry" />
        </mxCell>
        <mxCell id="VxN12bRxHwzkZfDvHQWl-54" value="" style="endArrow=none;html=1;rounded=0;entryX=0.5;entryY=1;entryDx=0;entryDy=0;exitX=0.75;exitY=0;exitDx=0;exitDy=0;" edge="1" parent="1" source="VxN12bRxHwzkZfDvHQWl-3" target="VxN12bRxHwzkZfDvHQWl-53">
          <mxGeometry width="50" height="50" relative="1" as="geometry">
            <mxPoint x="650" y="360" as="sourcePoint" />
            <mxPoint x="700" y="310" as="targetPoint" />
          </mxGeometry>
        </mxCell>
        <mxCell id="VxN12bRxHwzkZfDvHQWl-55" value="" style="ellipse;whiteSpace=wrap;html=1;aspect=fixed;" vertex="1" parent="1">
          <mxGeometry x="705" y="303" width="10" height="10" as="geometry" />
        </mxCell>
        <mxCell id="VxN12bRxHwzkZfDvHQWl-56" value="" style="endArrow=none;html=1;rounded=0;entryX=0.5;entryY=1;entryDx=0;entryDy=0;exitX=1;exitY=0;exitDx=0;exitDy=0;" edge="1" parent="1" source="VxN12bRxHwzkZfDvHQWl-3" target="VxN12bRxHwzkZfDvHQWl-55">
          <mxGeometry width="50" height="50" relative="1" as="geometry">
            <mxPoint x="680" y="370" as="sourcePoint" />
            <mxPoint x="730" y="320" as="targetPoint" />
          </mxGeometry>
        </mxCell>
        <mxCell id="VxN12bRxHwzkZfDvHQWl-57" value="" style="ellipse;whiteSpace=wrap;html=1;aspect=fixed;" vertex="1" parent="1">
          <mxGeometry x="610" y="489" width="10" height="10" as="geometry" />
        </mxCell>
        <mxCell id="VxN12bRxHwzkZfDvHQWl-58" value="" style="endArrow=none;html=1;rounded=0;entryX=0.5;entryY=1;entryDx=0;entryDy=0;exitX=0;exitY=0;exitDx=0;exitDy=0;" edge="1" parent="1" source="VxN12bRxHwzkZfDvHQWl-7" target="VxN12bRxHwzkZfDvHQWl-57">
          <mxGeometry width="50" height="50" relative="1" as="geometry">
            <mxPoint x="550" y="550" as="sourcePoint" />
            <mxPoint x="600" y="500" as="targetPoint" />
          </mxGeometry>
        </mxCell>
        <mxCell id="VxN12bRxHwzkZfDvHQWl-59" value="" style="ellipse;whiteSpace=wrap;html=1;aspect=fixed;" vertex="1" parent="1">
          <mxGeometry x="635" y="489" width="10" height="10" as="geometry" />
        </mxCell>
        <mxCell id="VxN12bRxHwzkZfDvHQWl-60" value="" style="endArrow=none;html=1;rounded=0;entryX=0.5;entryY=1;entryDx=0;entryDy=0;exitX=0.25;exitY=0;exitDx=0;exitDy=0;" edge="1" parent="1" source="VxN12bRxHwzkZfDvHQWl-7" target="VxN12bRxHwzkZfDvHQWl-59">
          <mxGeometry width="50" height="50" relative="1" as="geometry">
            <mxPoint x="530" y="570" as="sourcePoint" />
            <mxPoint x="580" y="520" as="targetPoint" />
          </mxGeometry>
        </mxCell>
        <mxCell id="VxN12bRxHwzkZfDvHQWl-61" value="" style="ellipse;whiteSpace=wrap;html=1;aspect=fixed;" vertex="1" parent="1">
          <mxGeometry x="660" y="489" width="10" height="10" as="geometry" />
        </mxCell>
        <mxCell id="VxN12bRxHwzkZfDvHQWl-62" value="" style="endArrow=none;html=1;rounded=0;entryX=0.5;entryY=1;entryDx=0;entryDy=0;exitX=0.5;exitY=0;exitDx=0;exitDy=0;" edge="1" parent="1" source="VxN12bRxHwzkZfDvHQWl-7" target="VxN12bRxHwzkZfDvHQWl-61">
          <mxGeometry width="50" height="50" relative="1" as="geometry">
            <mxPoint x="600" y="550" as="sourcePoint" />
            <mxPoint x="650" y="500" as="targetPoint" />
          </mxGeometry>
        </mxCell>
        <mxCell id="VxN12bRxHwzkZfDvHQWl-63" value="" style="ellipse;whiteSpace=wrap;html=1;aspect=fixed;" vertex="1" parent="1">
          <mxGeometry x="680" y="489" width="10" height="10" as="geometry" />
        </mxCell>
        <mxCell id="VxN12bRxHwzkZfDvHQWl-64" value="" style="endArrow=none;html=1;rounded=0;" edge="1" parent="1">
          <mxGeometry width="50" height="50" relative="1" as="geometry">
            <mxPoint x="530" y="550" as="sourcePoint" />
            <mxPoint x="580" y="500" as="targetPoint" />
          </mxGeometry>
        </mxCell>
      </root>
    </mxGraphModel>
  </diagram>
</mxfile>
